<svg width="73" height="73" viewBox="0 0 73 73" fill="none" xmlns="http://www.w3.org/2000/svg">
<path d="M46.6208 52.1548C46.6208 52.6852 46.4101 53.1939 46.035 53.569C45.6599 53.9441 45.1512 54.1548 44.6208 54.1548H16.6208C16.1808 54.1548 15.7608 54.5548 15.4008 54.8148L8.62079 60.1548V28.1548C8.62079 27.6244 8.8315 27.1156 9.20658 26.7406C9.58165 26.3655 10.0904 26.1548 10.6208 26.1548H18.3408V22.1548H10.6208C9.02949 22.1548 7.50337 22.7869 6.37815 23.9121C5.25293 25.0374 4.62079 26.5635 4.62079 28.1548V64.1548C4.62377 64.5262 4.73012 64.8895 4.92794 65.2039C5.12576 65.5183 5.40722 65.7714 5.74079 65.9348C6.06215 66.0809 6.41646 66.1394 6.76774 66.1043C7.11901 66.0692 7.45473 65.9417 7.74079 65.7348L18.0408 58.1548H44.9208C45.6788 58.1772 46.4334 58.0437 47.1377 57.7627C47.842 57.4816 48.4812 57.059 49.0155 56.5209C49.5499 55.9827 49.9681 55.3407 50.2442 54.6344C50.5203 53.9281 50.6485 53.1726 50.6208 52.4148V50.1548H46.6208V52.1548Z" fill="url(#paint0_linear_15_813)"/>
<path d="M62.6208 8.15479H28.6208C27.0295 8.15479 25.5034 8.78693 24.3781 9.91214C23.2529 11.0374 22.6208 12.5635 22.6208 14.1548V38.1548C22.6208 39.7461 23.2529 41.2722 24.3781 42.3974C25.5034 43.5226 27.0295 44.1548 28.6208 44.1548H55.7208L65.2808 51.5748C65.565 51.7849 65.8998 51.916 66.2511 51.9546C66.6024 51.9933 66.9577 51.9381 67.2808 51.7948C67.6211 51.6327 67.9087 51.3777 68.1104 51.0592C68.3121 50.7408 68.4197 50.3718 68.4208 49.9948V14.1548C68.4217 12.5975 67.817 11.101 66.7347 9.98132C65.6524 8.86168 64.1772 8.20669 62.6208 8.15479ZM64.6208 46.0348L57.6208 40.5748C57.2717 40.3038 56.8427 40.1562 56.4008 40.1548H28.6208C28.0904 40.1548 27.5816 39.9441 27.2066 39.569C26.8315 39.1939 26.6208 38.6852 26.6208 38.1548V14.1548C26.6208 13.6244 26.8315 13.1156 27.2066 12.7406C27.5816 12.3655 28.0904 12.1548 28.6208 12.1548H62.6208C63.1554 12.2033 63.6538 12.4456 64.0222 12.8361C64.3906 13.2266 64.6035 13.7383 64.6208 14.2748V46.0348Z" fill="url(#paint1_linear_15_813)"/>
<defs>
<linearGradient id="paint0_linear_15_813" x1="27.6226" y1="22.1548" x2="27.6226" y2="66.1142" gradientUnits="userSpaceOnUse">
<stop stop-color="#F48A94"/>
<stop offset="1" stop-color="#FBAC67"/>
</linearGradient>
<linearGradient id="paint1_linear_15_813" x1="45.5208" y1="8.15479" x2="45.5208" y2="51.9666" gradientUnits="userSpaceOnUse">
<stop stop-color="#F48A94"/>
<stop offset="1" stop-color="#FBAC67"/>
</linearGradient>
</defs>
</svg>
