<svg width="89" height="77" viewBox="0 0 89 77" fill="none" xmlns="http://www.w3.org/2000/svg">
<path d="M76.918 76.738C76.2354 76.7373 75.5686 76.533 75.0028 76.151L63.4809 68.4286C63.4241 68.3894 63.3568 68.3684 63.2878 68.3684C63.2188 68.3684 63.1515 68.3894 63.0948 68.4286L51.5728 76.151C50.9942 76.5374 50.3118 76.7386 49.6162 76.7279C48.9206 76.7172 48.2447 76.4952 47.6782 76.0913C47.1118 75.6874 46.6816 75.1208 46.4448 74.4666C46.208 73.8124 46.1758 73.1017 46.3524 72.4288L50.1364 59.0844C50.1543 59.0173 50.1522 58.9464 50.1302 58.8805C50.1082 58.8146 50.0675 58.7566 50.0129 58.7137L39.1088 50.1418C38.5347 49.7141 38.1089 49.1176 37.891 48.4357C37.6732 47.7539 37.6742 47.0209 37.8939 46.3397C38.1136 45.6584 38.541 45.063 39.1162 44.6369C39.6913 44.2109 40.3854 43.9755 41.1011 43.9638L55.0016 43.4386C55.0699 43.4339 55.1355 43.4095 55.1903 43.3684C55.2451 43.3273 55.2868 43.2713 55.3105 43.207L60.0984 30.1869C60.3398 29.5268 60.7781 28.9569 61.3541 28.5542C61.9301 28.1515 62.6159 27.9355 63.3187 27.9355C64.0215 27.9355 64.7073 28.1515 65.2833 28.5542C65.8593 28.9569 66.2976 29.5268 66.539 30.1869L71.3269 43.207C71.3506 43.2713 71.3923 43.3273 71.4471 43.3684C71.5019 43.4095 71.5675 43.4339 71.6358 43.4386L85.5363 43.9638C86.252 43.9755 86.9461 44.2109 87.5213 44.6369C88.0964 45.063 88.5238 45.6584 88.7435 46.3397C88.9632 47.0209 88.9642 47.7539 88.7464 48.4357C88.5285 49.1176 88.1027 49.7141 87.5287 50.1418L76.6245 58.7137C76.5683 58.7553 76.5262 58.8132 76.5041 58.8795C76.482 58.9458 76.4809 59.0174 76.501 59.0844L80.285 72.4288C80.4178 72.9407 80.431 73.4762 80.3235 73.994C80.216 74.5117 79.9907 74.9978 79.6651 75.4145C79.3396 75.8312 78.9224 76.1673 78.446 76.3968C77.9696 76.6263 77.4468 76.743 76.918 76.738ZM63.2955 65.2778C63.9795 65.2987 64.6414 65.5247 65.1953 65.9265L76.7172 73.649C76.7756 73.6933 76.8468 73.7176 76.9201 73.7182C76.9934 73.7188 77.065 73.6956 77.1241 73.6522C77.1832 73.6087 77.2266 73.5474 77.2479 73.4772C77.2692 73.407 77.2673 73.3318 77.2423 73.2628L73.4583 59.9184C73.2721 59.2638 73.2858 58.5685 73.4978 57.9217C73.7097 57.275 74.1101 56.7063 74.6476 56.2888L85.5517 47.7169C85.6112 47.6751 85.6557 47.6154 85.6787 47.5464C85.7017 47.4775 85.702 47.403 85.6796 47.3338C85.6571 47.2647 85.613 47.2046 85.5539 47.1623C85.4947 47.1201 85.4236 47.0979 85.3509 47.0991L71.4505 46.574C70.7698 46.5474 70.1125 46.3188 69.5624 45.9172C69.0122 45.5156 68.5941 44.9592 68.3615 44.319L63.5735 31.2989C63.552 31.2298 63.5088 31.1694 63.4505 31.1265C63.3922 31.0835 63.3216 31.0604 63.2492 31.0604C63.1768 31.0604 63.1063 31.0835 63.0479 31.1265C62.9896 31.1694 62.9464 31.2298 62.9249 31.2989L58.1833 44.3036C57.9506 44.9437 57.5325 45.5001 56.9824 45.9017C56.4322 46.3033 55.7749 46.532 55.0943 46.5585L41.1938 47.0837C41.1211 47.0825 41.05 47.1046 40.9908 47.1469C40.9317 47.1891 40.8877 47.2492 40.8652 47.3184C40.8427 47.3875 40.843 47.462 40.866 47.531C40.889 47.5999 40.9336 47.6597 40.993 47.7015L51.9126 56.2888C52.4485 56.7077 52.8476 57.2764 53.0594 57.9227C53.2712 58.569 53.286 59.2637 53.1019 59.9184L49.3333 73.2628C49.3108 73.3297 49.3107 73.402 49.333 73.4689C49.3553 73.5358 49.3988 73.5936 49.4569 73.6335C49.5128 73.6814 49.584 73.7077 49.6576 73.7077C49.7313 73.7077 49.8025 73.6814 49.8584 73.6335L61.3804 65.911C61.9435 65.5375 62.6044 65.3387 63.2801 65.3396L63.2955 65.2778Z" fill="url(#paint0_linear_13_302)"/>
<path d="M27.3814 76.738C26.9123 76.7375 26.454 76.5971 26.0651 76.3346L18.1467 71.0273C18.1077 71.0004 18.0614 70.986 18.014 70.986C17.9666 70.986 17.9203 71.0004 17.8813 71.0273L9.9628 76.3346C9.56517 76.6001 9.09619 76.7384 8.61812 76.7311C8.14005 76.7237 7.67553 76.5711 7.28623 76.2936C6.89693 76.016 6.60128 75.6266 6.43854 75.177C6.27579 74.7274 6.25366 74.239 6.37507 73.7765L8.97565 64.6055C8.98794 64.5594 8.98645 64.5107 8.97136 64.4654C8.95627 64.4201 8.92824 64.3803 8.89073 64.3508L1.39683 58.4597C1.00232 58.1658 0.709689 57.7558 0.559956 57.2872C0.410223 56.8186 0.410901 56.3149 0.561894 55.8467C0.712886 55.3785 1.00662 54.9693 1.40192 54.6765C1.79721 54.3836 2.27424 54.2219 2.76611 54.2138L12.3192 53.8529C12.3662 53.8497 12.4112 53.8329 12.4489 53.8047C12.4866 53.7764 12.5153 53.7379 12.5315 53.6937L15.8221 44.7456C15.9879 44.292 16.2892 43.9003 16.685 43.6235C17.0809 43.3468 17.5522 43.1984 18.0352 43.1984C18.5182 43.1984 18.9895 43.3468 19.3854 43.6235C19.7812 43.9003 20.0825 44.292 20.2483 44.7456L23.5389 53.6937C23.5551 53.7379 23.5838 53.7764 23.6215 53.8047C23.6592 53.8329 23.7042 53.8497 23.7512 53.8529L33.3043 54.2138C33.7962 54.2219 34.2732 54.3836 34.6685 54.6765C35.0638 54.9693 35.3575 55.3785 35.5085 55.8467C35.6595 56.3149 35.6602 56.8186 35.5104 57.2872C35.3607 57.7558 35.0681 58.1658 34.6736 58.4597L27.1797 64.3508C27.141 64.3793 27.1121 64.4191 27.0969 64.4647C27.0817 64.5103 27.081 64.5595 27.0948 64.6055L29.6953 73.7765C29.7866 74.1283 29.7957 74.4964 29.7218 74.8522C29.6479 75.208 29.4931 75.5421 29.2694 75.8284C29.0456 76.1148 28.7589 76.3458 28.4315 76.5035C28.1041 76.6613 27.7448 76.7415 27.3814 76.738ZM18.0193 68.862C18.4893 68.8763 18.9442 69.0317 19.3249 69.3078L27.2434 74.6151C27.2835 74.6456 27.3324 74.6623 27.3828 74.6627C27.4332 74.6631 27.4824 74.6472 27.523 74.6173C27.5636 74.5874 27.5935 74.5452 27.6081 74.497C27.6228 74.4488 27.6214 74.3971 27.6043 74.3497L25.0037 65.1787C24.8757 64.7288 24.8852 64.2509 25.0308 63.8065C25.1764 63.362 25.4516 62.9712 25.821 62.6843L33.3149 56.7932C33.3558 56.7645 33.3864 56.7234 33.4022 56.676C33.418 56.6286 33.4182 56.5774 33.4028 56.5299C33.3873 56.4824 33.3571 56.4411 33.3164 56.412C33.2758 56.383 33.2269 56.3678 33.1769 56.3686L23.6238 56.0077C23.156 55.9895 22.7043 55.8323 22.3262 55.5563C21.9481 55.2803 21.6608 54.8979 21.5009 54.458L18.2103 45.5099C18.1955 45.4623 18.1659 45.4208 18.1258 45.3913C18.0857 45.3618 18.0372 45.3459 17.9874 45.3459C17.9377 45.3459 17.8892 45.3618 17.8491 45.3913C17.809 45.4208 17.7794 45.4623 17.7645 45.5099L14.5059 54.4473C14.3459 54.8873 14.0586 55.2697 13.6805 55.5457C13.3024 55.8217 12.8507 55.9788 12.3829 55.9971L2.8298 56.358C2.77985 56.3572 2.73096 56.3724 2.6903 56.4014C2.64965 56.4305 2.61938 56.4718 2.60394 56.5193C2.5885 56.5668 2.5887 56.618 2.60452 56.6654C2.62033 56.7128 2.65093 56.7538 2.69181 56.7826L10.1963 62.6843C10.5646 62.9721 10.8389 63.363 10.9845 63.8071C11.13 64.2513 11.1402 64.7287 11.0136 65.1787L8.42369 74.3497C8.40823 74.3956 8.40816 74.4453 8.42348 74.4913C8.4388 74.5373 8.46869 74.577 8.50861 74.6045C8.54706 74.6373 8.59599 74.6554 8.6466 74.6554C8.6972 74.6554 8.74613 74.6373 8.78458 74.6045L16.7031 69.2972C17.0901 69.0405 17.5443 68.9038 18.0087 68.9044L18.0193 68.862Z" fill="url(#paint1_linear_13_302)"/>
<path d="M37.63 32.554C37.2887 32.5537 36.9553 32.4515 36.6724 32.2606L30.9114 28.3993C30.8831 28.3798 30.8494 28.3693 30.8149 28.3693C30.7804 28.3693 30.7468 28.3798 30.7184 28.3993L24.9574 32.2606C24.6681 32.4537 24.3269 32.5543 23.9791 32.549C23.6313 32.5437 23.2933 32.4326 23.0101 32.2307C22.7269 32.0288 22.5118 31.7454 22.3934 31.4184C22.275 31.0913 22.2589 30.7359 22.3472 30.3995L24.2392 23.7272C24.2482 23.6937 24.2471 23.6583 24.2361 23.6253C24.2251 23.5924 24.2047 23.5634 24.1774 23.5419L18.7254 19.2559C18.4384 19.0421 18.2255 18.7438 18.1165 18.4029C18.0076 18.062 18.0081 17.6955 18.1179 17.3549C18.2278 17.0143 18.4415 16.7166 18.7291 16.5035C19.0167 16.2905 19.3637 16.1728 19.7216 16.1669L26.6718 15.9044C26.706 15.902 26.7387 15.8898 26.7661 15.8693C26.7935 15.8487 26.8144 15.8207 26.8263 15.7885L29.2202 9.2785C29.3409 8.94847 29.5601 8.6635 29.8481 8.46215C30.1361 8.26081 30.479 8.15283 30.8304 8.15283C31.1818 8.15283 31.5247 8.26081 31.8127 8.46215C32.1007 8.6635 32.3198 8.94847 32.4405 9.2785L34.8345 15.7885C34.8463 15.8207 34.8672 15.8487 34.8946 15.8693C34.922 15.8898 34.9547 15.902 34.9889 15.9044L41.9391 16.1669C42.297 16.1728 42.644 16.2905 42.9316 16.5035C43.2192 16.7166 43.4329 17.0143 43.5428 17.3549C43.6526 17.6955 43.6531 18.062 43.5442 18.4029C43.4352 18.7438 43.2223 19.0421 42.9353 19.2559L37.4833 23.5419C37.4552 23.5627 37.4341 23.5916 37.4231 23.6248C37.412 23.658 37.4115 23.6938 37.4215 23.7272L39.3135 30.3995C39.3799 30.6554 39.3865 30.9232 39.3327 31.1821C39.279 31.4409 39.1664 31.684 39.0036 31.8923C38.8408 32.1007 38.6322 32.2687 38.394 32.3835C38.1558 32.4982 37.8944 32.5566 37.63 32.554ZM30.8188 26.824C31.1607 26.8344 31.4917 26.9474 31.7686 27.1483L37.5296 31.0095C37.5588 31.0317 37.5944 31.0439 37.6311 31.0442C37.6677 31.0445 37.7035 31.0329 37.7331 31.0112C37.7626 30.9894 37.7843 30.9587 37.795 30.9236C37.8056 30.8886 37.8046 30.851 37.7922 30.8165L35.9002 24.1443C35.8071 23.817 35.8139 23.4693 35.9199 23.1459C36.0258 22.8225 36.226 22.5382 36.4948 22.3295L41.9469 18.0435C41.9766 18.0226 41.9989 17.9927 42.0104 17.9583C42.0219 17.9238 42.022 17.8865 42.0108 17.852C41.9995 17.8174 41.9775 17.7874 41.948 17.7662C41.9184 17.7451 41.8828 17.734 41.8465 17.7346L34.8962 17.472C34.5559 17.4588 34.2273 17.3445 33.9522 17.1436C33.6771 16.9428 33.4681 16.6647 33.3517 16.3446L30.9578 9.83452C30.947 9.79995 30.9254 9.76974 30.8963 9.74829C30.8671 9.72683 30.8318 9.71526 30.7956 9.71526C30.7594 9.71526 30.7241 9.72683 30.695 9.74829C30.6658 9.76974 30.6442 9.79995 30.6334 9.83452L28.2626 16.3368C28.1463 16.6569 27.9373 16.9351 27.6622 17.1359C27.3871 17.3367 27.0585 17.4511 26.7181 17.4643L19.7679 17.7269C19.7316 17.7263 19.696 17.7374 19.6664 17.7585C19.6369 17.7796 19.6148 17.8097 19.6036 17.8442C19.5924 17.8788 19.5925 17.9161 19.604 17.9505C19.6155 17.985 19.6378 18.0149 19.6675 18.0358L25.1273 22.3295C25.3952 22.5389 25.5948 22.8233 25.7007 23.1464C25.8066 23.4696 25.814 23.8169 25.7219 24.1443L23.8377 30.8165C23.8264 30.8499 23.8264 30.8861 23.8375 30.9195C23.8487 30.9529 23.8704 30.9818 23.8994 31.0018C23.9274 31.0257 23.963 31.0389 23.9998 31.0389C24.0366 31.0389 24.0722 31.0257 24.1002 31.0018L29.8612 27.1406C30.1427 26.9538 30.4732 26.8544 30.8111 26.8549L30.8188 26.824Z" fill="url(#paint2_linear_13_302)"/>
<defs>
<linearGradient id="paint0_linear_13_302" x1="63.3187" y1="27.9355" x2="63.3187" y2="76.7381" gradientUnits="userSpaceOnUse">
<stop stop-color="#F48A94"/>
<stop offset="1" stop-color="#FBAC67"/>
</linearGradient>
<linearGradient id="paint1_linear_13_302" x1="18.0352" y1="43.1984" x2="18.0352" y2="76.7381" gradientUnits="userSpaceOnUse">
<stop stop-color="#F48A94"/>
<stop offset="1" stop-color="#FBAC67"/>
</linearGradient>
<linearGradient id="paint2_linear_13_302" x1="30.8304" y1="8.15283" x2="30.8304" y2="32.5541" gradientUnits="userSpaceOnUse">
<stop stop-color="#F48A94"/>
<stop offset="1" stop-color="#FBAC67"/>
</linearGradient>
</defs>
</svg>
