<svg width="70" height="70" viewBox="0 0 70 70" fill="none" xmlns="http://www.w3.org/2000/svg">
<path d="M11.3942 2.2384C11.3942 1.66653 11.6213 1.11808 12.0257 0.713704C12.4301 0.309329 12.9785 0.0821533 13.5504 0.0821533L56.6754 0.0821533C57.2473 0.0821533 57.7957 0.309329 58.2001 0.713704C58.6045 1.11808 58.8317 1.66653 58.8317 2.2384C58.8317 4.55853 58.7799 6.76653 58.685 8.8624C60.389 9.14457 62.0193 9.76509 63.4797 10.6874C64.94 11.6096 66.201 12.815 67.188 14.2324C68.1751 15.6497 68.8684 17.2504 69.227 18.94C69.5857 20.6295 69.6023 22.3738 69.2761 24.0699C68.9498 25.7661 68.2872 27.3797 67.3274 28.8156C66.3675 30.2516 65.1299 31.4808 63.6874 32.4308C62.2449 33.3808 60.6268 34.0324 58.9285 34.3471C57.2302 34.6617 55.4861 34.6332 53.799 34.263C50.3921 42.3058 45.7001 46.2388 41.5817 47.248V56.619L47.727 58.1543C48.5636 58.3613 49.3528 58.7365 50.0428 59.254L57.9692 65.2009C58.3312 65.4724 58.5986 65.851 58.7336 66.283C58.8685 66.715 58.8641 67.1784 58.721 67.6078C58.5779 68.0371 58.3033 68.4105 57.9362 68.6751C57.5691 68.9398 57.128 69.0822 56.6754 69.0822H13.5504C13.0978 69.0822 12.6568 68.9398 12.2896 68.6751C11.9225 68.4105 11.6479 68.0371 11.5048 67.6078C11.3617 67.1784 11.3573 66.715 11.4922 66.283C11.6272 65.851 11.8946 65.4724 12.2567 65.2009L20.183 59.254C20.873 58.7365 21.6622 58.3613 22.4988 58.1543L28.6442 56.619V47.248C24.5257 46.2388 19.8337 42.3058 16.4268 34.2587C14.7389 34.6309 12.9934 34.661 11.2936 34.3473C9.59383 34.0336 7.97411 33.3825 6.53014 32.4324C5.08617 31.4823 3.84723 30.2525 2.88648 28.8156C1.92573 27.3787 1.26266 25.7638 0.936433 24.0664C0.610202 22.369 0.627422 20.6234 0.987079 18.9327C1.34673 17.242 2.04153 15.6405 3.03044 14.2229C4.01935 12.8052 5.28231 11.6001 6.74475 10.6786C8.20718 9.7572 9.83943 9.13817 11.5451 8.85809C11.4436 6.65299 11.3932 4.44584 11.3942 2.2384ZM11.8211 13.1922C9.57077 13.6039 7.57618 14.8927 6.27612 16.7751C4.97605 18.6575 4.477 20.9792 4.88875 23.2295C5.3005 25.4798 6.58932 27.4744 8.47168 28.7745C10.3541 30.0745 12.6758 30.5736 14.9261 30.1618C13.49 25.6337 12.3903 20.0447 11.8211 13.1922ZM55.304 30.1618C57.5544 30.5736 59.8761 30.0745 61.7584 28.7745C63.6408 27.4744 64.9296 25.4798 65.3414 23.2295C65.7531 20.9792 65.2541 18.6575 63.954 16.7751C62.6539 14.8927 60.6594 13.6039 58.409 13.1922C57.8355 20.049 56.7358 25.6337 55.304 30.1618ZM15.7239 4.39465C15.7541 6.62422 15.836 8.73303 15.9654 10.7297C16.526 19.4755 17.9362 26.0218 19.7173 30.8562C23.4433 40.9647 28.5752 43.2072 30.8004 43.2072C31.3723 43.2072 31.9207 43.4343 32.3251 43.8387C32.7295 44.2431 32.9567 44.7915 32.9567 45.3634V56.619C32.9566 57.5804 32.6354 58.5142 32.0439 59.2721C31.4524 60.03 30.6247 60.5685 29.6921 60.8022L23.5425 62.3374C23.2633 62.4069 23.0008 62.5315 22.7705 62.704L20.0192 64.7697H50.2067L47.4553 62.704C47.2237 62.5311 46.9597 62.4064 46.679 62.3374L40.5337 60.8022C39.6012 60.5685 38.7734 60.03 38.1819 59.2721C37.5904 58.5142 37.2692 57.5804 37.2692 56.619V45.3634C37.2692 44.7915 37.4963 44.2431 37.9007 43.8387C38.3051 43.4343 38.8535 43.2072 39.4254 43.2072C41.6507 43.2072 46.7825 40.9647 50.5085 30.8562C52.2896 26.0262 53.6998 19.4712 54.2604 10.7297C54.3898 8.73303 54.4717 6.62422 54.5019 4.39465H15.7239Z" fill="url(#paint0_linear_13_328)"/>
<defs>
<linearGradient id="paint0_linear_13_328" x1="35.1064" y1="0.0821533" x2="35.1064" y2="69.0822" gradientUnits="userSpaceOnUse">
<stop stop-color="#F87779"/>
<stop offset="1" stop-color="#FBAC67"/>
</linearGradient>
</defs>
</svg>
