<?xml version="1.0" encoding="utf-8"?>
<!-- Generator: Adobe Illustrator 26.1.0, SVG Export Plug-In . SVG Version: 6.00 Build 0)  -->
<svg version="1.1" id="Layer_1" xmlns="http://www.w3.org/2000/svg" xmlns:xlink="http://www.w3.org/1999/xlink" x="0px" y="0px"
	 viewBox="0 0 1000 261.89" style="enable-background:new 0 0 1000 261.89;" xml:space="preserve">
<style type="text/css">
	.st0{fill:#FFFFFF;}
	.st1{fill:#231F20;}
	.st2{display:none;}
	.st3{display:inline;fill:#EC1C24;}
	.st4{font-family:'Bauhaus93';}
	.st5{font-size:283.6886px;}
	.st6{letter-spacing:-56;}
</style>
<g>
	<path class="st0" d="M231.83,36.64v136.16c0,16.99-5.12,30.84-15.38,41.56c-10.25,10.71-23.5,16.07-39.76,16.07
		c-19.58,0-34.54-8.91-44.88-26.73c-6.37,9.61-13.21,16.46-20.5,20.57c-7.3,4.11-16.3,6.16-27.01,6.16
		c-16.99,0-30.01-5.35-39.06-16.07c-9.05-10.71-13.58-26.13-13.58-46.27V36.64h56.24v123.01c0,6.09,0.48,10.11,1.45,12.05
		c0.97,1.94,2.93,2.91,5.89,2.91c5.54,0,8.31-4.66,8.31-13.99V36.64h56.24v123.01c0,5.91,0.51,9.88,1.52,11.91
		c1.01,2.03,3,3.05,5.96,3.05c5.54,0,8.31-4.99,8.31-14.96V36.64H231.83z"/>
	<path class="st0" d="M366.75,110.2v42.11h-36.71c-4.99,0-8.52,0.74-10.6,2.22c-2.08,1.48-3.12,3.97-3.12,7.48
		c0,3.97,1.06,6.58,3.19,7.83c2.12,1.25,6.46,1.87,13.02,1.87h37.82v54.02h-44.19c-20.78,0-36.66-4.96-47.65-14.89
		c-10.99-9.93-16.48-24.26-16.48-43.01V93.71c0-18.1,5.19-32.14,15.58-42.11c10.39-9.97,25-14.96,43.84-14.96h48.9v54.3h-35.88
		c-9.7,0-14.54,3.14-14.54,9.42c0,3.69,1.15,6.26,3.46,7.69c2.31,1.43,6.42,2.15,12.33,2.15H366.75z"/>
	<path class="st0" d="M598.91,36.64v136.16c0,16.99-5.12,30.84-15.38,41.56c-10.25,10.71-23.5,16.07-39.75,16.07
		c-19.58,0-34.54-8.91-44.88-26.73c-6.37,9.61-13.21,16.46-20.5,20.57c-7.3,4.11-16.3,6.16-27.01,6.16
		c-16.99,0-30.01-5.35-39.06-16.07c-9.05-10.71-13.58-26.13-13.58-46.27V36.64h56.24v123.01c0,6.09,0.48,10.11,1.45,12.05
		c0.97,1.94,2.93,2.91,5.89,2.91c5.54,0,8.31-4.66,8.31-13.99V36.64h56.24v123.01c0,5.91,0.51,9.88,1.52,11.91
		c1.02,2.03,3,3.05,5.96,3.05c5.54,0,8.31-4.99,8.31-14.96V36.64H598.91z"/>
	<path class="st0" d="M722.61,31.93c26.78,0,49.75,9.74,68.91,29.23c19.16,19.49,28.74,42.8,28.74,69.95
		c0,27.61-9.65,51.07-28.95,70.37c-19.3,19.3-42.76,28.95-70.37,28.95c-27.43,0-50.84-9.7-70.23-29.09
		c-19.39-19.39-29.09-42.8-29.09-70.23c0-27.7,9.77-51.16,29.3-70.37C670.46,41.54,694.35,31.93,722.61,31.93z M720.95,87.62
		c-11.54,0-21.38,4.25-29.5,12.74c-8.13,8.5-12.19,18.75-12.19,30.75c0,12.01,4.09,22.26,12.26,30.75
		c8.17,8.5,17.98,12.74,29.44,12.74c11.64,0,21.49-4.22,29.57-12.67c8.08-8.45,12.12-18.72,12.12-30.82
		c0-12.1-4.04-22.37-12.12-30.82C742.44,91.84,732.58,87.62,720.95,87.62z"/>
	<path class="st0" d="M879.61,31.93c26.78,0,49.75,9.74,68.91,29.23c19.16,19.49,28.74,42.8,28.74,69.95
		c0,27.61-9.65,51.07-28.95,70.37c-19.3,19.3-42.76,28.95-70.37,28.95c-27.43,0-50.84-9.7-70.23-29.09
		c-19.39-19.39-29.09-42.8-29.09-70.23c0-27.7,9.77-51.16,29.3-70.37C827.46,41.54,851.35,31.93,879.61,31.93z M877.95,87.62
		c-11.54,0-21.38,4.25-29.5,12.74c-8.13,8.5-12.19,18.75-12.19,30.75c0,12.01,4.09,22.26,12.26,30.75
		c8.17,8.5,17.98,12.74,29.44,12.74c11.64,0,21.49-4.22,29.57-12.67c8.08-8.45,12.12-18.72,12.12-30.82
		c0-12.1-4.04-22.37-12.12-30.82C899.44,91.84,889.58,87.62,877.95,87.62z"/>
</g>
<rect x="358.76" y="36.64" class="st1" width="12.66" height="54.31"/>
<rect x="359.43" y="171.42" class="st1" width="12.66" height="54.31"/>
<rect x="358.76" y="110.19" class="st1" width="12.66" height="42.18"/>
<text transform="matrix(1 0 0 1 69.2136 280.8084)" class="st2"><tspan x="0" y="0" class="st3 st4 st5">WEW</tspan><tspan x="597.44" y="0" class="st3 st4 st5 st6">O</tspan><tspan x="754.43" y="0" class="st3 st4 st5">O</tspan></text>
</svg>
